<svg xmlns="http://www.w3.org/2000/svg" viewBox="0 0 546.59 641.01"><defs><style>.cls-1{font-size:193.68px;fill:#efc009;font-family:Montserrat-ExtraBold, Montserrat;font-weight:800;}.cls-2{fill:none;stroke:#0b3d67;stroke-miterlimit:10;stroke-width:18px;}.cls-3{font-size:106.62px;}.cls-3,.cls-4{fill:#0b3d67;font-family:Montserrat-Bold, Montserrat;font-weight:700;}.cls-4{font-size:55.84px;}.cls-5{letter-spacing:0em;}.cls-6{letter-spacing:0em;}.cls-7{letter-spacing:-0.01em;}.cls-8{letter-spacing:-0.01em;}.cls-9{letter-spacing:-0.01em;}</style></defs><title>bongklim_text_logo</title><g id="Layer_2" data-name="Layer 2"><text class="cls-1" transform="translate(120.86 245.88) scale(0.98 1)">B</text><text class="cls-1" transform="translate(264.2 245.88) scale(0.98 1)">K</text><path class="cls-2" d="M478.72,285.24a110.66,110.66,0,0,1-11,48.66c-36,73.47-115.8,122.41-170.39,149.37h0c-76.47-29.1-142.39-81.71-173.81-156.44a98,98,0,0,1-7.62-38V137.37L297.29,82.79l181.43,56.05v146.4Z" transform="translate(-32.41 -73.38)"/></g><g id="Layer_3" data-name="Layer 3"><text class="cls-3" transform="translate(0 548.64) scale(0.98 1)">BONGKIM</text><text class="cls-4" transform="translate(2.67 626.16) scale(0.98 1)">SE<tspan class="cls-5" x="73.09" y="0">C</tspan><tspan class="cls-6" x="113.79" y="0">URI</tspan><tspan class="cls-7" x="217.14" y="0">T</tspan><tspan x="250.92" y="0">Y </tspan><tspan class="cls-8" x="304.47" y="0">A</tspan><tspan x="346.68" y="0">GEN</tspan><tspan class="cls-9" x="472.31" y="0">C</tspan><tspan x="512.85" y="0">Y</tspan></text></g></svg>