<svg id="Layer_2" data-name="Layer 2" xmlns="http://www.w3.org/2000/svg" viewBox="0 0 631 519.73"><defs><style>.cls-1{opacity:0.3;}</style></defs><title>person-image-placeholder</title><path class="cls-1" d="M3,529s2-49,58-67c27-8,71-16,134-52l-1-11a364.58,364.58,0,0,1,33-17c3-11,6-19,4-42-1-15-8-14-14-26s-12-34-12-47c-8,0-13-3-16-10-1-10-2-20-6-31-1-10,0-15-1-25s0-18,10-15c-2-8-10-85,7-103,2-10,3-26,21-35,8-7,16-15,30-19,7-4,49-36,141-9l-3,5s49,19,48,54c2,7,7,16,4,40,4,21,5,29,2,66,7,0,11,1,9,20s-7,42-7,52-12,11-15,9c-1,8-9,42-16,53s-8,6-8,35c0,21,4,28,4,28l34,18-2,10s33,23,76,36,105,15,117,83Z" transform="translate(-3 -9.27)"/></svg>